<mxfile host="app.diagrams.net" modified="2021-01-19T13:34:00.413Z" agent="5.0 (Macintosh; Intel Mac OS X 11_1_0) AppleWebKit/537.36 (KHTML, like Gecko) Chrome/87.0.4280.141 Safari/537.36" etag="RH9teteIN128gA_zsXV1" version="14.2.4" type="github">
  <diagram id="ujgx_KwXrEI9A39SC-V9" name="Page-1">
    <mxGraphModel dx="3153" dy="1900" grid="1" gridSize="10" guides="1" tooltips="1" connect="1" arrows="1" fold="1" page="1" pageScale="1" pageWidth="827" pageHeight="1169" math="0" shadow="0">
      <root>
        <mxCell id="0" />
        <mxCell id="1" parent="0" />
        <mxCell id="Me6nHANUsx9TyPjyCLSa-3" value="" style="whiteSpace=wrap;html=1;aspect=fixed;" vertex="1" parent="1">
          <mxGeometry x="610" y="40" width="150" height="150" as="geometry" />
        </mxCell>
        <mxCell id="Me6nHANUsx9TyPjyCLSa-53" style="edgeStyle=orthogonalEdgeStyle;rounded=0;orthogonalLoop=1;jettySize=auto;html=1;exitX=0.5;exitY=1;exitDx=0;exitDy=0;entryX=0.5;entryY=0;entryDx=0;entryDy=0;endSize=8;fontSize=30;" edge="1" parent="1" source="Me6nHANUsx9TyPjyCLSa-6" target="Me6nHANUsx9TyPjyCLSa-44">
          <mxGeometry relative="1" as="geometry" />
        </mxCell>
        <mxCell id="Me6nHANUsx9TyPjyCLSa-6" value="Experimental Protocol" style="shape=internalStorage;whiteSpace=wrap;html=1;backgroundOutline=1;dx=20;dy=20;fontSize=20;" vertex="1" parent="1">
          <mxGeometry x="334" y="90" width="160" height="170" as="geometry" />
        </mxCell>
        <mxCell id="Me6nHANUsx9TyPjyCLSa-31" value="Metadata" style="shape=note;whiteSpace=wrap;html=1;backgroundOutline=1;darkOpacity=0.05;fontSize=20;" vertex="1" parent="1">
          <mxGeometry x="45" y="960" width="130" height="171" as="geometry" />
        </mxCell>
        <mxCell id="Me6nHANUsx9TyPjyCLSa-33" value="" style="shape=cylinder3;whiteSpace=wrap;html=1;boundedLbl=1;backgroundOutline=1;size=15;fontSize=20;" vertex="1" parent="1">
          <mxGeometry x="690" y="1070" width="110" height="71" as="geometry" />
        </mxCell>
        <mxCell id="Me6nHANUsx9TyPjyCLSa-38" value="" style="shape=cylinder3;whiteSpace=wrap;html=1;boundedLbl=1;backgroundOutline=1;size=15;fontSize=20;" vertex="1" parent="1">
          <mxGeometry x="690" y="1020" width="110" height="71" as="geometry" />
        </mxCell>
        <mxCell id="Me6nHANUsx9TyPjyCLSa-39" value="" style="shape=cylinder3;whiteSpace=wrap;html=1;boundedLbl=1;backgroundOutline=1;size=15;fontSize=20;" vertex="1" parent="1">
          <mxGeometry x="690" y="970" width="110" height="71" as="geometry" />
        </mxCell>
        <mxCell id="Me6nHANUsx9TyPjyCLSa-52" style="edgeStyle=orthogonalEdgeStyle;rounded=0;orthogonalLoop=1;jettySize=auto;html=1;exitX=0.5;exitY=1;exitDx=0;exitDy=0;exitPerimeter=0;entryX=0.25;entryY=0;entryDx=0;entryDy=0;endSize=8;fontSize=30;" edge="1" parent="1" source="Me6nHANUsx9TyPjyCLSa-40" target="Me6nHANUsx9TyPjyCLSa-44">
          <mxGeometry relative="1" as="geometry" />
        </mxCell>
        <mxCell id="Me6nHANUsx9TyPjyCLSa-40" value="Metadata" style="shape=note;whiteSpace=wrap;html=1;backgroundOutline=1;darkOpacity=0.05;fontSize=20;" vertex="1" parent="1">
          <mxGeometry x="45" y="40" width="130" height="171" as="geometry" />
        </mxCell>
        <mxCell id="Me6nHANUsx9TyPjyCLSa-41" value="" style="whiteSpace=wrap;html=1;aspect=fixed;" vertex="1" parent="1">
          <mxGeometry x="620" y="50" width="150" height="150" as="geometry" />
        </mxCell>
        <mxCell id="Me6nHANUsx9TyPjyCLSa-54" style="edgeStyle=orthogonalEdgeStyle;rounded=0;orthogonalLoop=1;jettySize=auto;html=1;exitX=0.5;exitY=1;exitDx=0;exitDy=0;entryX=0.75;entryY=0;entryDx=0;entryDy=0;endSize=8;fontSize=30;" edge="1" parent="1" source="Me6nHANUsx9TyPjyCLSa-42" target="Me6nHANUsx9TyPjyCLSa-44">
          <mxGeometry relative="1" as="geometry" />
        </mxCell>
        <mxCell id="Me6nHANUsx9TyPjyCLSa-42" value="Subject ID" style="whiteSpace=wrap;html=1;aspect=fixed;fontSize=20;" vertex="1" parent="1">
          <mxGeometry x="630" y="61" width="150" height="150" as="geometry" />
        </mxCell>
        <mxCell id="Me6nHANUsx9TyPjyCLSa-55" style="edgeStyle=orthogonalEdgeStyle;rounded=0;orthogonalLoop=1;jettySize=auto;html=1;exitX=0.5;exitY=1;exitDx=0;exitDy=0;entryX=0.5;entryY=0;entryDx=0;entryDy=0;endSize=8;fontSize=30;" edge="1" parent="1" source="Me6nHANUsx9TyPjyCLSa-44" target="Me6nHANUsx9TyPjyCLSa-50">
          <mxGeometry relative="1" as="geometry" />
        </mxCell>
        <mxCell id="Me6nHANUsx9TyPjyCLSa-56" style="edgeStyle=orthogonalEdgeStyle;rounded=0;orthogonalLoop=1;jettySize=auto;html=1;exitX=0.25;exitY=1;exitDx=0;exitDy=0;entryX=0.5;entryY=0;entryDx=0;entryDy=0;entryPerimeter=0;endSize=8;fontSize=30;" edge="1" parent="1" source="Me6nHANUsx9TyPjyCLSa-44" target="Me6nHANUsx9TyPjyCLSa-31">
          <mxGeometry relative="1" as="geometry" />
        </mxCell>
        <mxCell id="Me6nHANUsx9TyPjyCLSa-57" style="edgeStyle=orthogonalEdgeStyle;rounded=0;orthogonalLoop=1;jettySize=auto;html=1;exitX=0.75;exitY=1;exitDx=0;exitDy=0;entryX=0.5;entryY=0;entryDx=0;entryDy=0;entryPerimeter=0;endSize=8;fontSize=30;" edge="1" parent="1" source="Me6nHANUsx9TyPjyCLSa-44" target="Me6nHANUsx9TyPjyCLSa-39">
          <mxGeometry relative="1" as="geometry" />
        </mxCell>
        <mxCell id="Me6nHANUsx9TyPjyCLSa-63" style="edgeStyle=orthogonalEdgeStyle;rounded=0;orthogonalLoop=1;jettySize=auto;html=1;exitX=1;exitY=0.25;exitDx=0;exitDy=0;entryX=0.5;entryY=0;entryDx=0;entryDy=0;endSize=8;fontSize=25;" edge="1" parent="1" source="Me6nHANUsx9TyPjyCLSa-44" target="Me6nHANUsx9TyPjyCLSa-61">
          <mxGeometry relative="1" as="geometry">
            <Array as="points">
              <mxPoint x="616" y="548" />
              <mxPoint x="616" y="520" />
              <mxPoint x="694" y="520" />
            </Array>
          </mxGeometry>
        </mxCell>
        <mxCell id="Me6nHANUsx9TyPjyCLSa-44" value="GUI" style="rounded=1;whiteSpace=wrap;html=1;fontSize=40;fillColor=#f5f5f5;strokeColor=#666666;fontColor=#333333;" vertex="1" parent="1">
          <mxGeometry x="254" y="510" width="320" height="150" as="geometry" />
        </mxCell>
        <mxCell id="Me6nHANUsx9TyPjyCLSa-50" value="" style="shape=message;html=1;whiteSpace=wrap;html=1;outlineConnect=0;fontSize=30;align=left;" vertex="1" parent="1">
          <mxGeometry x="347" y="850" width="134" height="90" as="geometry" />
        </mxCell>
        <mxCell id="Me6nHANUsx9TyPjyCLSa-58" style="edgeStyle=orthogonalEdgeStyle;rounded=0;orthogonalLoop=1;jettySize=auto;html=1;exitX=0.5;exitY=0;exitDx=0;exitDy=0;entryX=0;entryY=0.25;entryDx=0;entryDy=0;endSize=8;fontSize=30;" edge="1" parent="1" source="Me6nHANUsx9TyPjyCLSa-59" target="Me6nHANUsx9TyPjyCLSa-44">
          <mxGeometry relative="1" as="geometry">
            <Array as="points">
              <mxPoint x="140" y="520" />
              <mxPoint x="200" y="520" />
              <mxPoint x="200" y="548" />
            </Array>
          </mxGeometry>
        </mxCell>
        <mxCell id="Me6nHANUsx9TyPjyCLSa-59" value="Task" style="rhombus;whiteSpace=wrap;html=1;fontSize=25;align=center;" vertex="1" parent="1">
          <mxGeometry x="100" y="545" width="80" height="80" as="geometry" />
        </mxCell>
        <mxCell id="Me6nHANUsx9TyPjyCLSa-60" style="edgeStyle=orthogonalEdgeStyle;rounded=0;orthogonalLoop=1;jettySize=auto;html=1;exitX=0;exitY=0.75;exitDx=0;exitDy=0;endSize=8;fontSize=30;" edge="1" parent="1" source="Me6nHANUsx9TyPjyCLSa-44">
          <mxGeometry relative="1" as="geometry">
            <mxPoint x="254" y="622.5" as="sourcePoint" />
            <mxPoint x="140" y="622" as="targetPoint" />
            <Array as="points">
              <mxPoint x="200" y="623" />
              <mxPoint x="200" y="650" />
              <mxPoint x="140" y="650" />
            </Array>
          </mxGeometry>
        </mxCell>
        <mxCell id="Me6nHANUsx9TyPjyCLSa-64" style="edgeStyle=orthogonalEdgeStyle;rounded=0;orthogonalLoop=1;jettySize=auto;html=1;exitX=0.5;exitY=1;exitDx=0;exitDy=0;entryX=1;entryY=0.75;entryDx=0;entryDy=0;endSize=8;fontSize=25;" edge="1" parent="1" source="Me6nHANUsx9TyPjyCLSa-61" target="Me6nHANUsx9TyPjyCLSa-44">
          <mxGeometry relative="1" as="geometry">
            <Array as="points">
              <mxPoint x="694" y="660" />
              <mxPoint x="616" y="660" />
              <mxPoint x="616" y="623" />
            </Array>
          </mxGeometry>
        </mxCell>
        <mxCell id="Me6nHANUsx9TyPjyCLSa-61" value="Instructions" style="shape=message;html=1;whiteSpace=wrap;html=1;outlineConnect=0;fontSize=25;align=center;labelPosition=center;verticalLabelPosition=bottom;verticalAlign=top;" vertex="1" parent="1">
          <mxGeometry x="658" y="562" width="72" height="58" as="geometry" />
        </mxCell>
      </root>
    </mxGraphModel>
  </diagram>
</mxfile>
